<?xml version="1.0" encoding="utf-8"?>
<svg viewBox="0 0 500 500" xmlns="http://www.w3.org/2000/svg" xmlns:bx="https://boxy-svg.com">
  <defs>
    <style bx:fonts="DynaPuff">@import url(https://fonts.googleapis.com/css2?family=DynaPuff%3Aital%2Cwght%400%2C400%3B0%2C500%3B0%2C600%3B0%2C700&amp;display=swap);</style>
  </defs>
  <path d="M 40.771 31.469 L 40.771 30.469 L 42.771 30.469 C 42.864 29.326 42.834 28.176 42.681 27.039 C 42.541 26.799 41.681 26.679 41.111 26.599 C 40.618 26.562 40.133 26.455 39.671 26.279 C 39.251 26.089 37.451 25.469 34.871 24.619 C 34.454 24.482 34.019 24.414 33.581 24.419 L 29.461 24.419 C 28.709 24.421 27.973 24.629 27.331 25.019 L 24.451 27.019 C 24.451 27.019 21.761 27.609 20.301 28.089 C 19.241 28.439 19.181 30.649 19.241 31.399 L 18.241 31.489 C 18.241 31.109 17.991 27.789 19.991 27.139 C 21.351 26.689 23.631 26.139 24.141 26.059 L 26.791 24.209 C 27.591 23.717 28.511 23.454 29.451 23.449 L 33.571 23.449 C 34.119 23.46 34.664 23.545 35.191 23.699 C 36.751 24.209 39.451 25.109 40.091 25.409 C 40.467 25.53 40.856 25.607 41.251 25.639 C 42.191 25.769 43.171 25.899 43.561 26.579 C 43.951 27.259 43.821 29.579 43.741 31.019 L 43.741 31.489 L 40.771 31.469 Z" style="fill:#fff"/>
  <path d="M 37.821 33.639 C 35.858 33.639 34.631 31.514 35.612 29.814 C 36.594 28.114 39.047 28.114 40.029 29.814 C 40.253 30.202 40.371 30.641 40.371 31.089 C 40.365 32.495 39.227 33.633 37.821 33.639 Z M 37.821 29.539 C 36.627 29.539 35.882 30.831 36.478 31.864 C 37.075 32.897 38.566 32.897 39.163 31.864 C 39.299 31.628 39.371 31.361 39.371 31.089 C 39.371 30.233 38.677 29.539 37.821 29.539 Z" style="fill:#fff"/>
  <path d="M 22.251 33.639 C 20.288 33.639 19.061 31.514 20.042 29.814 C 21.024 28.114 23.477 28.114 24.459 29.814 C 24.683 30.202 24.801 30.641 24.801 31.089 C 24.795 32.495 23.657 33.633 22.251 33.639 Z M 22.251 29.539 C 21.057 29.539 20.312 30.831 20.908 31.864 C 21.505 32.897 22.996 32.897 23.593 31.864 C 23.729 31.628 23.801 31.361 23.801 31.089 C 23.801 30.233 23.107 29.539 22.251 29.539 Z" style="fill:#fff"/>
  <rect x="25.451" y="30.529" width="9.23" height="1" style="fill:#fff"/>
  <text style="fill: rgb(255, 255, 255); font-family: DynaPuff; font-size: 15.7px; white-space: pre;" x="50.576" y="34.193">Te LlevoApp</text>
</svg>